<svg width="33" height="32" viewBox="0 0 33 32" fill="none" xmlns="http://www.w3.org/2000/svg">
<path d="M16.5002 9.66405L15.5143 8.68139C13.2001 6.37473 8.95671 7.17073 7.42491 10.0707C6.70577 11.4347 6.54351 13.404 7.85668 15.9174C9.12172 18.3374 11.7535 21.236 16.5002 24.3933C21.2468 21.236 23.8773 18.3374 25.1437 15.9174C26.4569 13.4027 26.296 11.4347 25.5755 10.0707C24.0437 7.17073 19.8003 6.3734 17.4861 8.68006L16.5002 9.66405ZM16.5002 26C-4.58333 12.4907 10.0086 1.94674 16.2582 7.52406C16.3407 7.59739 16.4218 7.67339 16.5002 7.75206C16.5778 7.67346 16.6585 7.59785 16.7422 7.52539C22.9904 1.94408 37.5837 12.4894 16.5002 26Z" fill="#878787"/>
</svg>
