<svg width="33" height="32" viewBox="0 0 33 32" fill="none" xmlns="http://www.w3.org/2000/svg">
<path d="M17.5122 5.09989L17.6434 5.22285L27.4444 14.8514L26.3932 15.9206L25.0436 14.595L25.0444 24.7581C25.0444 25.5483 24.4326 26.1961 23.6565 26.2531L23.5448 26.2576H8.54945C7.75919 26.2576 7.11139 25.6458 7.05366 24.8698L7.04991 24.7581L7.04916 14.5957L5.70108 15.9206L4.6499 14.8514L14.4404 5.2326C15.2749 4.38086 16.6207 4.33363 17.5122 5.09989ZM15.5733 6.22754L15.5013 6.29277L8.5487 13.1224L8.54945 24.7581L12.2975 24.7573L12.2983 17.2604C12.2983 16.4701 12.9101 15.8223 13.6861 15.7646L13.7978 15.7609H18.2964C19.0867 15.7609 19.7345 16.3727 19.7922 17.1487L19.796 17.2604L19.7952 24.7573L23.5448 24.7581L23.5441 13.1217L16.572 6.27178C16.2991 6.00411 15.8732 5.98762 15.5733 6.22754ZM18.2964 17.2604H13.7978L13.7971 24.7573H18.2957L18.2964 17.2604Z" fill="#878787"/>
</svg>
